<svg xmlns="http://www.w3.org/2000/svg" xmlns:xlink="http://www.w3.org/1999/xlink" width="300" zoomAndPan="magnify" viewBox="0 0 224.87999 225" height="300" preserveAspectRatio="xMidYMid meet" version="1.0"><defs><clipPath id="5d44613e7a"><path d="M 156.808594 119.125 L 202.390625 119.125 L 202.390625 171.429688 L 156.808594 171.429688 Z M 156.808594 119.125 " clip-rule="nonzero"/></clipPath><clipPath id="f62c36f368"><path d="M 22.488281 94 L 188 94 L 188 188 L 22.488281 188 Z M 22.488281 94 " clip-rule="nonzero"/></clipPath><clipPath id="bd5d4a2a87"><path d="M 30 191 L 180 191 L 180 203.5625 L 30 203.5625 Z M 30 191 " clip-rule="nonzero"/></clipPath><clipPath id="66e83a9101"><path d="M 96 21.410156 L 119 21.410156 L 119 81 L 96 81 Z M 96 21.410156 " clip-rule="nonzero"/></clipPath></defs><g clip-path="url(#5d44613e7a)"><path fill="#ffffff" d="M 179.636719 119.15625 C 179.007812 122.777344 178.191406 126.355469 177.136719 129.863281 C 184.742188 131.289062 190.464844 137.457031 190.464844 144.84375 C 190.46875 153.285156 183 160.128906 173.792969 160.128906 C 170.09375 160.128906 166.707031 158.988281 163.941406 157.121094 C 161.773438 160.226562 159.429688 163.195312 156.921875 166.007812 C 161.660156 169.179688 167.476562 171.078125 173.789062 171.074219 C 189.59375 171.074219 202.40625 159.328125 202.40625 144.84375 C 202.40625 132.191406 192.640625 121.636719 179.636719 119.15625 " fill-opacity="1" fill-rule="nonzero"/></g><path fill="#ffffff" d="M 46.773438 113.671875 L 60.570312 113.671875 C 61.136719 113.671875 61.585938 114.15625 61.539062 114.726562 C 61.085938 120.332031 59.886719 147.058594 76.296875 163.226562 C 76.527344 163.453125 76.246094 163.816406 75.96875 163.652344 C 70.722656 160.511719 55.304688 148.746094 45.835938 114.914062 C 45.664062 114.289062 46.128906 113.671875 46.773438 113.671875 " fill-opacity="1" fill-rule="nonzero"/><g clip-path="url(#f62c36f368)"><path fill="#ffffff" d="M 174.691406 105.078125 L 35.28125 105.078125 C 34.742188 105.078125 34.386719 105.34375 34.183594 105.5625 C 34.015625 105.75 33.734375 106.152344 33.792969 106.75 C 36.28125 133.476562 51.5625 160.191406 71.820312 173.222656 C 75.644531 175.679688 80.121094 176.980469 84.761719 176.980469 L 125.21875 176.980469 C 129.859375 176.980469 134.335938 175.679688 138.15625 173.21875 C 158.414062 160.191406 173.695312 133.476562 176.183594 106.75 C 176.238281 106.152344 175.960938 105.75 175.789062 105.5625 C 175.589844 105.34375 175.234375 105.078125 174.691406 105.078125 Z M 125.21875 187.988281 L 84.761719 187.988281 C 78.003906 187.988281 71.472656 186.082031 65.867188 182.476562 C 42.914062 167.714844 25.617188 137.691406 22.832031 107.769531 C 22.507812 104.257812 23.679688 100.753906 26.050781 98.148438 C 28.410156 95.558594 31.777344 94.074219 35.28125 94.074219 L 174.691406 94.070312 C 178.199219 94.070312 181.5625 95.558594 183.925781 98.148438 C 186.296875 100.75 187.46875 104.257812 187.140625 107.769531 C 184.355469 137.691406 167.0625 167.714844 144.113281 182.476562 C 138.507812 186.082031 131.976562 187.988281 125.21875 187.988281 " fill-opacity="1" fill-rule="nonzero"/></g><g clip-path="url(#bd5d4a2a87)"><path fill="#ffffff" d="M 33.195312 191.285156 L 176.78125 191.285156 C 179.589844 191.285156 180.167969 195.257812 177.472656 196.058594 L 170.09375 198.253906 C 158.613281 201.660156 146.699219 203.394531 134.722656 203.394531 L 75.25 203.394531 C 63.273438 203.390625 51.367188 201.660156 39.886719 198.253906 L 32.5 196.058594 C 29.808594 195.257812 30.386719 191.285156 33.195312 191.285156 " fill-opacity="1" fill-rule="nonzero"/></g><path fill="#ffffff" d="M 114.125 23.859375 C 114.441406 23.574219 114.128906 23.0625 113.730469 23.214844 C 113.398438 23.339844 113.027344 23.492188 112.621094 23.667969 C 110.789062 24.476562 108.183594 25.765625 105.433594 28.011719 C 104.0625 29.132812 102.632812 30.476562 101.367188 32.183594 C 100.089844 33.867188 98.921875 35.917969 98.289062 38.320312 C 97.640625 40.707031 97.558594 43.425781 98.171875 45.976562 C 98.75 48.546875 99.96875 50.890625 101.402344 52.929688 C 102.117188 53.960938 102.925781 54.898438 103.730469 55.800781 C 104.453125 56.609375 105.34375 57.464844 106.058594 58.214844 C 107.53125 59.761719 108.964844 61.234375 110.144531 62.746094 C 111.285156 64.265625 112.390625 65.746094 112.988281 67.238281 C 113.535156 68.710938 113.972656 70.164062 113.734375 71.484375 C 113.621094 72.828125 113.054688 74.066406 112.398438 75.121094 C 112.136719 75.699219 111.664062 76.089844 111.328125 76.542969 C 110.960938 76.96875 110.644531 77.402344 110.308594 77.738281 C 109.914062 78.089844 109.558594 78.402344 109.257812 78.679688 C 108.984375 78.933594 109.257812 79.378906 109.609375 79.246094 C 110 79.089844 110.460938 78.90625 110.980469 78.6875 C 111.4375 78.46875 111.910156 78.144531 112.449219 77.820312 C 112.976562 77.480469 113.589844 77.15625 114.097656 76.589844 C 115.195312 75.601562 116.417969 74.214844 117.015625 72.273438 C 117.78125 70.363281 117.671875 68.050781 117.15625 65.890625 C 116.636719 63.6875 115.589844 61.679688 114.394531 59.742188 C 113.179688 57.820312 111.734375 56.046875 110.238281 54.351562 C 109.511719 53.542969 108.78125 52.722656 108.050781 51.902344 C 107.386719 51.132812 106.75 50.359375 106.203125 49.554688 C 105.042969 47.964844 104.171875 46.273438 103.679688 44.570312 C 103.195312 42.863281 103.097656 41.144531 103.355469 39.441406 C 103.632812 37.757812 104.203125 36.074219 105.03125 34.554688 C 105.863281 33.046875 106.820312 31.636719 107.8125 30.386719 C 109.8125 27.898438 111.816406 25.96875 113.253906 24.644531 C 113.570312 24.355469 113.863281 24.089844 114.125 23.859375 " fill-opacity="1" fill-rule="nonzero"/><g clip-path="url(#66e83a9101)"><path fill="#ffffff" d="M 115.128906 71.667969 C 115.054688 72.46875 114.851562 73.269531 114.515625 74.085938 C 115.050781 73.378906 115.429688 72.640625 115.671875 71.859375 L 115.710938 71.75 C 116.4375 69.941406 116.15625 67.742188 115.789062 66.214844 C 115.265625 63.996094 114.128906 61.988281 113.199219 60.484375 C 112.207031 58.914062 110.964844 57.304688 109.183594 55.28125 C 108.820312 54.871094 108.445312 54.453125 108.066406 54.03125 C 107.714844 53.636719 107.359375 53.238281 107.003906 52.839844 L 106.984375 52.820312 C 106.371094 52.109375 105.664062 51.261719 105.050781 50.363281 C 103.777344 48.605469 102.859375 46.789062 102.332031 44.960938 C 101.796875 43.082031 101.671875 41.15625 101.964844 39.230469 C 102.273438 37.367188 102.90625 35.519531 103.800781 33.882812 C 104.636719 32.363281 105.613281 30.894531 106.710938 29.511719 C 107.253906 28.835938 107.796875 28.203125 108.328125 27.609375 C 107.675781 28.050781 107.003906 28.542969 106.324219 29.101562 C 104.730469 30.402344 103.511719 31.644531 102.496094 33.019531 C 101.109375 34.851562 100.15625 36.75 99.648438 38.675781 C 99.035156 40.925781 99 43.398438 99.539062 45.652344 C 100.019531 47.789062 101.03125 49.960938 102.550781 52.121094 C 103.238281 53.105469 104.027344 54.023438 104.78125 54.867188 C 105.210938 55.347656 105.722656 55.863281 106.214844 56.363281 C 106.515625 56.667969 106.804688 56.960938 107.074219 57.242188 L 107.527344 57.71875 C 108.875 59.132812 110.148438 60.46875 111.25 61.882812 L 111.265625 61.902344 C 112.421875 63.441406 113.621094 65.03125 114.292969 66.714844 L 114.304688 66.746094 C 114.855469 68.226562 115.417969 69.949219 115.128906 71.667969 Z M 109.488281 80.671875 C 108.898438 80.671875 108.332031 80.375 108.007812 79.851562 C 107.5625 79.136719 107.691406 78.207031 108.3125 77.640625 C 108.609375 77.371094 108.953125 77.0625 109.339844 76.71875 C 109.492188 76.558594 109.664062 76.351562 109.84375 76.132812 C 109.96875 75.976562 110.097656 75.816406 110.234375 75.660156 C 110.371094 75.476562 110.519531 75.3125 110.648438 75.167969 C 110.851562 74.933594 111.03125 74.734375 111.117188 74.542969 L 111.15625 74.457031 L 111.207031 74.375 C 111.886719 73.289062 112.253906 72.304688 112.335938 71.363281 L 112.351562 71.234375 C 112.53125 70.246094 112.132812 68.972656 111.675781 67.742188 C 111.140625 66.414062 110.066406 64.984375 109.027344 63.601562 C 108.011719 62.300781 106.789062 61.019531 105.492188 59.660156 L 105.039062 59.183594 C 104.78125 58.914062 104.503906 58.628906 104.214844 58.335938 C 103.699219 57.816406 103.164062 57.273438 102.6875 56.742188 C 101.871094 55.828125 101.015625 54.835938 100.25 53.734375 C 98.523438 51.273438 97.359375 48.769531 96.800781 46.289062 C 96.15625 43.601562 96.203125 40.632812 96.933594 37.949219 C 97.53125 35.679688 98.644531 33.449219 100.246094 31.335938 C 101.398438 29.78125 102.765625 28.375 104.546875 26.921875 C 107.480469 24.527344 110.234375 23.183594 112.054688 22.382812 C 112.453125 22.207031 112.847656 22.046875 113.226562 21.902344 C 114.03125 21.59375 114.945312 21.902344 115.394531 22.640625 C 115.847656 23.378906 115.703125 24.332031 115.058594 24.910156 C 114.804688 25.136719 114.515625 25.394531 114.203125 25.683594 C 112.875 26.902344 110.882812 28.808594 108.90625 31.265625 C 107.914062 32.519531 107.023438 33.855469 106.261719 35.234375 C 105.523438 36.59375 104.996094 38.128906 104.742188 39.671875 C 104.511719 41.179688 104.609375 42.703125 105.03125 44.1875 C 105.472656 45.699219 106.246094 47.230469 107.339844 48.726562 L 107.367188 48.765625 C 107.898438 49.550781 108.542969 50.324219 109.105469 50.976562 C 109.457031 51.371094 109.8125 51.765625 110.164062 52.160156 C 110.539062 52.578125 110.914062 52.996094 111.285156 53.414062 C 112.5625 54.863281 114.195312 56.796875 115.582031 58.992188 C 116.632812 60.691406 117.90625 62.957031 118.523438 65.566406 C 119.175781 68.296875 119.113281 70.777344 118.339844 72.742188 C 117.777344 74.53125 116.714844 76.117188 115.089844 77.589844 C 114.554688 78.164062 113.964844 78.535156 113.484375 78.828125 C 113.390625 78.886719 113.300781 78.945312 113.210938 79.003906 L 113.167969 79.03125 C 112.992188 79.132812 112.832031 79.234375 112.671875 79.332031 C 112.308594 79.558594 111.964844 79.773438 111.59375 79.953125 L 111.523438 79.984375 C 111.042969 80.1875 110.570312 80.375 110.121094 80.554688 C 109.914062 80.632812 109.699219 80.671875 109.488281 80.671875 " fill-opacity="1" fill-rule="nonzero"/></g><path fill="#ffffff" d="M 86.941406 30.351562 C 87.226562 30.066406 86.933594 29.589844 86.550781 29.714844 C 86.285156 29.800781 85.988281 29.90625 85.660156 30.027344 C 84.933594 30.300781 84.058594 30.671875 83.089844 31.183594 C 82.128906 31.699219 81.046875 32.335938 79.960938 33.183594 C 79.414062 33.609375 78.875 34.101562 78.292969 34.59375 C 77.738281 35.117188 77.246094 35.753906 76.691406 36.375 C 76.207031 37.054688 75.714844 37.785156 75.246094 38.5625 C 74.875 39.40625 74.417969 40.253906 74.1875 41.21875 C 73.992188 42.195312 73.671875 43.1875 73.753906 44.234375 L 73.777344 45.816406 C 73.796875 46.34375 73.980469 46.835938 74.078125 47.351562 L 74.46875 48.886719 C 74.644531 49.371094 74.882812 49.820312 75.101562 50.285156 C 75.542969 51.214844 76 52.144531 76.617188 52.890625 C 77.214844 53.660156 77.792969 54.503906 78.425781 55.183594 C 78.972656 55.796875 79.683594 56.46875 80.21875 57.023438 C 81.34375 58.195312 82.4375 59.285156 83.335938 60.394531 C 84.199219 61.503906 85.054688 62.578125 85.519531 63.632812 C 85.941406 64.679688 86.3125 65.6875 86.195312 66.628906 C 86.164062 67.589844 85.808594 68.515625 85.351562 69.328125 C 84.910156 70.144531 84.308594 70.804688 83.871094 71.394531 C 83.578125 71.683594 83.320312 71.945312 83.097656 72.171875 C 82.847656 72.425781 83.109375 72.839844 83.445312 72.730469 C 83.757812 72.625 84.128906 72.496094 84.550781 72.34375 C 85.230469 71.96875 86.171875 71.589844 87.050781 70.804688 C 87.945312 70.058594 88.957031 68.976562 89.46875 67.421875 C 90.125 65.890625 90.078125 64.023438 89.6875 62.289062 C 89.300781 60.519531 88.511719 58.925781 87.585938 57.394531 C 86.65625 55.875 85.546875 54.480469 84.40625 53.167969 C 83.859375 52.542969 83.304688 51.917969 82.753906 51.289062 C 82.230469 50.714844 81.886719 50.109375 81.429688 49.535156 C 80.925781 48.976562 80.644531 48.363281 80.34375 47.761719 C 80.191406 47.460938 80.003906 47.167969 79.867188 46.871094 L 79.589844 45.960938 C 79.335938 45.359375 79.296875 44.757812 79.230469 44.15625 C 79.074219 43.554688 79.269531 42.953125 79.257812 42.339844 C 79.277344 41.726562 79.566406 41.144531 79.648438 40.519531 C 79.863281 39.925781 80.109375 39.332031 80.355469 38.746094 C 80.972656 37.625 81.621094 36.53125 82.332031 35.558594 C 83.070312 34.609375 83.78125 33.71875 84.453125 32.953125 C 85.164062 32.203125 85.78125 31.542969 86.289062 31.003906 C 86.527344 30.765625 86.746094 30.546875 86.941406 30.351562 " fill-opacity="1" fill-rule="nonzero"/><path fill="#ffffff" d="M 87.59375 66.738281 C 87.566406 67.371094 87.433594 68.019531 87.195312 68.675781 C 87.625 68.144531 87.9375 67.585938 88.136719 66.980469 L 88.179688 66.867188 C 88.644531 65.785156 88.691406 64.269531 88.316406 62.59375 C 88.011719 61.207031 87.414062 59.828125 86.382812 58.121094 C 85.628906 56.886719 84.660156 55.605469 83.34375 54.089844 L 82.679688 53.332031 C 82.351562 52.960938 82.023438 52.589844 81.695312 52.214844 C 81.339844 51.824219 81.046875 51.40625 80.792969 51.042969 C 80.644531 50.832031 80.5 50.628906 80.355469 50.4375 C 79.789062 49.800781 79.460938 49.144531 79.171875 48.558594 L 79.085938 48.390625 C 79.023438 48.265625 78.957031 48.152344 78.894531 48.039062 C 78.796875 47.867188 78.6875 47.671875 78.589844 47.460938 L 78.550781 47.371094 L 78.265625 46.4375 C 77.984375 45.734375 77.914062 45.078125 77.855469 44.496094 L 77.84375 44.394531 C 77.714844 43.8125 77.769531 43.292969 77.816406 42.867188 C 77.835938 42.683594 77.855469 42.507812 77.851562 42.367188 L 77.851562 42.332031 L 77.855469 42.292969 C 77.871094 41.777344 78 41.328125 78.109375 40.9375 C 78.171875 40.714844 78.230469 40.507812 78.257812 40.335938 L 78.273438 40.1875 L 78.324219 40.046875 C 78.558594 39.402344 78.816406 38.777344 79.0625 38.199219 L 79.125 38.074219 C 79.871094 36.707031 80.53125 35.644531 81.195312 34.730469 L 81.21875 34.695312 C 81.660156 34.132812 82.054688 33.636719 82.417969 33.1875 C 81.917969 33.5 81.371094 33.867188 80.820312 34.292969 C 80.484375 34.554688 80.140625 34.855469 79.773438 35.175781 C 79.59375 35.328125 79.414062 35.484375 79.234375 35.640625 C 78.921875 35.933594 78.617188 36.292969 78.292969 36.671875 C 78.128906 36.863281 77.964844 37.058594 77.792969 37.253906 C 77.277344 37.980469 76.863281 38.605469 76.496094 39.214844 C 76.417969 39.386719 76.339844 39.554688 76.257812 39.726562 C 75.976562 40.339844 75.707031 40.921875 75.5625 41.523438 C 75.515625 41.738281 75.46875 41.960938 75.414062 42.179688 C 75.257812 42.871094 75.109375 43.527344 75.152344 44.128906 L 75.15625 44.214844 L 75.183594 45.777344 C 75.191406 45.976562 75.253906 46.214844 75.324219 46.492188 C 75.367188 46.667969 75.410156 46.847656 75.453125 47.042969 L 75.808594 48.46875 C 75.914062 48.742188 76.050781 49.023438 76.195312 49.316406 C 76.253906 49.441406 76.3125 49.5625 76.371094 49.6875 C 76.78125 50.550781 77.191406 51.382812 77.703125 51.996094 L 77.726562 52.027344 C 77.914062 52.269531 78.101562 52.523438 78.289062 52.773438 C 78.6875 53.304688 79.066406 53.808594 79.453125 54.222656 L 79.472656 54.246094 C 79.800781 54.613281 80.203125 55.015625 80.59375 55.40625 C 80.816406 55.628906 81.035156 55.847656 81.230469 56.050781 L 81.769531 56.605469 C 82.730469 57.59375 83.632812 58.53125 84.425781 59.507812 L 84.542969 59.660156 C 85.402344 60.757812 86.289062 61.894531 86.804688 63.070312 L 86.820312 63.109375 C 87.308594 64.316406 87.734375 65.503906 87.59375 66.738281 Z M 83.335938 74.152344 C 82.75 74.152344 82.1875 73.851562 81.859375 73.332031 C 81.433594 72.648438 81.527344 71.765625 82.089844 71.191406 C 82.296875 70.976562 82.539062 70.734375 82.808594 70.46875 C 82.925781 70.316406 83.050781 70.15625 83.179688 69.996094 C 83.511719 69.570312 83.859375 69.132812 84.117188 68.660156 C 84.546875 67.894531 84.769531 67.203125 84.789062 66.585938 L 84.796875 66.453125 C 84.875 65.867188 84.570312 65.042969 84.222656 64.179688 C 83.847656 63.332031 83.109375 62.386719 82.328125 61.390625 L 82.234375 61.269531 C 81.523438 60.390625 80.660156 59.5 79.75 58.558594 L 79.207031 58 C 79.027344 57.808594 78.820312 57.605469 78.605469 57.394531 C 78.195312 56.976562 77.765625 56.550781 77.386719 56.128906 C 76.902344 55.605469 76.464844 55.023438 76.039062 54.453125 C 75.867188 54.222656 75.695312 53.996094 75.519531 53.773438 C 74.8125 52.910156 74.316406 51.914062 73.832031 50.886719 C 73.777344 50.773438 73.722656 50.660156 73.667969 50.546875 C 73.488281 50.179688 73.304688 49.796875 73.148438 49.371094 L 73.101562 49.230469 L 72.699219 47.617188 C 72.671875 47.472656 72.632812 47.324219 72.597656 47.179688 C 72.5 46.796875 72.390625 46.367188 72.375 45.867188 L 72.375 45.839844 L 72.347656 44.296875 C 72.28125 43.285156 72.492188 42.367188 72.675781 41.554688 C 72.722656 41.347656 72.769531 41.144531 72.8125 40.941406 L 72.824219 40.898438 C 73.03125 40.011719 73.390625 39.230469 73.710938 38.542969 C 73.792969 38.359375 73.878906 38.179688 73.960938 37.996094 L 74.042969 37.835938 C 74.46875 37.125 74.949219 36.402344 75.546875 35.5625 L 75.644531 35.4375 C 75.820312 35.242188 75.988281 35.042969 76.15625 34.851562 C 76.523438 34.417969 76.902344 33.972656 77.332031 33.570312 L 77.386719 33.523438 C 77.570312 33.363281 77.75 33.207031 77.929688 33.054688 C 78.308594 32.726562 78.699219 32.382812 79.09375 32.078125 C 80.375 31.082031 81.609375 30.382812 82.421875 29.945312 C 83.316406 29.476562 84.234375 29.0625 85.164062 28.710938 C 85.484375 28.589844 85.804688 28.480469 86.117188 28.378906 C 86.90625 28.121094 87.761719 28.4375 88.195312 29.148438 C 88.628906 29.855469 88.519531 30.761719 87.929688 31.347656 C 87.742188 31.535156 87.53125 31.746094 87.300781 31.980469 C 86.800781 32.511719 86.191406 33.160156 85.492188 33.898438 C 84.914062 34.558594 84.265625 35.355469 83.457031 36.402344 C 82.875 37.199219 82.292969 38.140625 81.621094 39.363281 C 81.417969 39.84375 81.203125 40.359375 81.015625 40.875 C 80.960938 41.179688 80.882812 41.460938 80.8125 41.707031 C 80.742188 41.957031 80.675781 42.191406 80.664062 42.367188 C 80.664062 42.660156 80.636719 42.929688 80.609375 43.167969 C 80.582031 43.429688 80.554688 43.671875 80.589844 43.804688 L 80.617188 43.902344 L 80.648438 44.203125 C 80.695312 44.667969 80.738281 45.070312 80.886719 45.414062 L 80.9375 45.558594 L 81.179688 46.355469 C 81.226562 46.449219 81.28125 46.550781 81.34375 46.660156 C 81.433594 46.816406 81.523438 46.976562 81.601562 47.140625 L 81.6875 47.308594 C 81.933594 47.804688 82.144531 48.230469 82.472656 48.59375 L 82.53125 48.664062 C 82.738281 48.925781 82.917969 49.179688 83.09375 49.425781 C 83.324219 49.753906 83.539062 50.0625 83.792969 50.347656 C 84.132812 50.734375 84.460938 51.105469 84.789062 51.472656 L 85.460938 52.238281 C 86.886719 53.878906 87.941406 55.28125 88.785156 56.660156 C 89.984375 58.648438 90.6875 60.289062 91.058594 61.984375 C 91.410156 63.554688 91.648438 65.855469 90.785156 67.917969 C 90.28125 69.414062 89.359375 70.707031 87.96875 71.867188 C 87.160156 72.585938 86.34375 73 85.691406 73.332031 C 85.527344 73.417969 85.371094 73.496094 85.230469 73.574219 L 85.132812 73.628906 L 85.03125 73.664062 C 84.636719 73.808594 84.253906 73.941406 83.886719 74.0625 C 83.703125 74.125 83.519531 74.152344 83.335938 74.152344 " fill-opacity="1" fill-rule="nonzero"/><path fill="#ffffff" d="M 138.582031 30.351562 C 138.867188 30.070312 138.578125 29.589844 138.195312 29.714844 C 137.925781 29.800781 137.628906 29.90625 137.304688 30.027344 C 136.570312 30.304688 135.699219 30.671875 134.730469 31.183594 C 133.765625 31.699219 132.691406 32.335938 131.601562 33.1875 C 131.058594 33.609375 130.519531 34.101562 129.9375 34.59375 C 129.378906 35.117188 128.890625 35.757812 128.335938 36.375 C 127.851562 37.058594 127.355469 37.785156 126.886719 38.5625 C 126.515625 39.40625 126.058594 40.253906 125.832031 41.21875 C 125.636719 42.191406 125.316406 43.1875 125.394531 44.234375 L 125.421875 45.8125 C 125.4375 46.347656 125.621094 46.835938 125.726562 47.351562 L 126.109375 48.886719 C 126.285156 49.375 126.523438 49.824219 126.742188 50.289062 C 127.183594 51.214844 127.644531 52.144531 128.257812 52.890625 C 128.859375 53.660156 129.433594 54.503906 130.066406 55.183594 C 130.617188 55.796875 131.328125 56.46875 131.863281 57.027344 C 132.988281 58.191406 134.082031 59.285156 134.980469 60.394531 C 135.84375 61.503906 136.699219 62.578125 137.160156 63.632812 C 137.585938 64.679688 137.957031 65.6875 137.835938 66.632812 C 137.804688 67.589844 137.449219 68.515625 136.996094 69.332031 C 136.550781 70.144531 135.949219 70.804688 135.515625 71.394531 C 135.21875 71.683594 134.957031 71.945312 134.738281 72.171875 C 134.488281 72.425781 134.75 72.839844 135.085938 72.730469 C 135.398438 72.625 135.769531 72.5 136.191406 72.34375 C 136.875 71.96875 137.816406 71.589844 138.691406 70.800781 C 139.585938 70.058594 140.597656 68.976562 141.113281 67.421875 C 141.769531 65.894531 141.722656 64.023438 141.332031 62.289062 C 140.945312 60.519531 140.15625 58.925781 139.234375 57.390625 C 138.300781 55.871094 137.1875 54.480469 136.050781 53.164062 C 135.503906 52.542969 134.945312 51.914062 134.394531 51.289062 C 133.875 50.71875 133.527344 50.109375 133.070312 49.535156 C 132.566406 48.976562 132.289062 48.363281 131.984375 47.761719 C 131.835938 47.460938 131.644531 47.167969 131.507812 46.871094 L 131.234375 45.964844 C 130.980469 45.363281 130.9375 44.757812 130.871094 44.15625 C 130.714844 43.550781 130.914062 42.953125 130.902344 42.339844 C 130.921875 41.726562 131.207031 41.144531 131.285156 40.519531 C 131.507812 39.925781 131.753906 39.332031 132 38.746094 C 132.613281 37.625 133.261719 36.53125 133.972656 35.558594 C 134.714844 34.609375 135.425781 33.722656 136.097656 32.953125 C 136.804688 32.199219 137.425781 31.542969 137.933594 31.003906 C 138.171875 30.765625 138.386719 30.546875 138.582031 30.351562 " fill-opacity="1" fill-rule="nonzero"/><path fill="#ffffff" d="M 137.59375 29.355469 C 137.589844 29.355469 137.589844 29.359375 137.589844 29.359375 C 137.589844 29.359375 137.589844 29.355469 137.589844 29.355469 Z M 139.238281 66.742188 C 139.210938 67.367188 139.078125 68.015625 138.839844 68.675781 C 139.269531 68.144531 139.578125 67.582031 139.777344 66.980469 L 139.820312 66.867188 C 140.285156 65.785156 140.335938 64.265625 139.960938 62.59375 C 139.65625 61.214844 139.0625 59.835938 138.027344 58.113281 C 137.277344 56.890625 136.308594 55.609375 134.988281 54.085938 C 134.699219 53.757812 134.402344 53.421875 134.101562 53.082031 C 133.847656 52.792969 133.59375 52.507812 133.339844 52.214844 C 132.984375 51.824219 132.695312 51.410156 132.4375 51.046875 C 132.289062 50.832031 132.144531 50.628906 131.996094 50.4375 C 131.4375 49.808594 131.109375 49.152344 130.820312 48.574219 L 130.730469 48.394531 C 130.667969 48.269531 130.601562 48.15625 130.539062 48.042969 C 130.441406 47.871094 130.332031 47.671875 130.234375 47.457031 L 130.191406 47.367188 L 129.910156 46.4375 C 129.621094 45.726562 129.554688 45.0625 129.492188 44.476562 L 129.484375 44.390625 C 129.355469 43.8125 129.414062 43.292969 129.460938 42.871094 C 129.480469 42.683594 129.496094 42.507812 129.496094 42.367188 L 129.496094 42.292969 C 129.511719 41.777344 129.636719 41.335938 129.75 40.945312 C 129.8125 40.722656 129.871094 40.511719 129.894531 40.339844 L 129.914062 40.183594 L 129.96875 40.035156 C 130.207031 39.386719 130.476562 38.742188 130.707031 38.199219 L 130.769531 38.074219 C 131.523438 36.691406 132.183594 35.628906 132.839844 34.730469 L 132.867188 34.695312 C 133.308594 34.125 133.703125 33.628906 134.066406 33.183594 C 133.566406 33.492188 133.019531 33.863281 132.464844 34.292969 C 132.125 34.558594 131.78125 34.859375 131.410156 35.179688 C 131.234375 35.332031 131.058594 35.484375 130.875 35.640625 C 130.566406 35.933594 130.257812 36.292969 129.9375 36.671875 C 129.773438 36.863281 129.609375 37.058594 129.4375 37.25 C 129.0625 37.78125 128.589844 38.46875 128.132812 39.214844 C 128.054688 39.390625 127.972656 39.570312 127.890625 39.746094 C 127.609375 40.355469 127.34375 40.925781 127.203125 41.519531 C 127.15625 41.742188 127.105469 41.964844 127.054688 42.191406 C 126.898438 42.878906 126.75 43.527344 126.796875 44.125 L 126.800781 44.214844 L 126.824219 45.792969 C 126.832031 45.976562 126.894531 46.222656 126.96875 46.507812 C 127.011719 46.683594 127.058594 46.859375 127.09375 47.039062 L 127.453125 48.472656 C 127.558594 48.746094 127.695312 49.027344 127.835938 49.320312 C 127.898438 49.441406 127.957031 49.5625 128.015625 49.6875 C 128.421875 50.550781 128.832031 51.378906 129.34375 52 L 129.367188 52.027344 C 129.558594 52.269531 129.746094 52.523438 129.933594 52.773438 C 130.332031 53.304688 130.707031 53.808594 131.09375 54.222656 L 131.113281 54.246094 C 131.4375 54.601562 131.828125 54.996094 132.210938 55.378906 C 132.445312 55.613281 132.671875 55.84375 132.875 56.054688 L 133.414062 56.609375 C 134.371094 57.597656 135.277344 58.53125 136.070312 59.511719 L 136.191406 59.664062 C 137.046875 60.757812 137.933594 61.894531 138.445312 63.070312 L 138.460938 63.101562 C 138.949219 64.308594 139.378906 65.488281 139.238281 66.742188 Z M 134.976562 74.152344 C 134.386719 74.152344 133.824219 73.851562 133.5 73.332031 C 133.074219 72.648438 133.167969 71.765625 133.734375 71.191406 C 133.941406 70.976562 134.183594 70.734375 134.453125 70.46875 C 134.570312 70.316406 134.691406 70.15625 134.820312 69.996094 C 135.15625 69.570312 135.503906 69.136719 135.761719 68.660156 C 136.1875 67.890625 136.414062 67.199219 136.433594 66.585938 L 136.441406 66.457031 C 136.519531 65.859375 136.214844 65.039062 135.867188 64.179688 C 135.492188 63.332031 134.753906 62.390625 133.976562 61.390625 L 133.878906 61.269531 C 133.167969 60.390625 132.308594 59.503906 131.394531 58.566406 L 130.851562 58.003906 C 130.65625 57.800781 130.441406 57.585938 130.21875 57.363281 C 129.816406 56.960938 129.402344 56.542969 129.03125 56.132812 C 128.542969 55.609375 128.105469 55.023438 127.683594 54.457031 C 127.511719 54.226562 127.335938 53.996094 127.164062 53.769531 C 126.453125 52.90625 125.960938 51.914062 125.472656 50.886719 C 125.421875 50.773438 125.367188 50.664062 125.3125 50.550781 C 125.132812 50.183594 124.945312 49.800781 124.789062 49.367188 L 124.746094 49.230469 L 124.347656 47.632812 C 124.320312 47.488281 124.28125 47.347656 124.246094 47.203125 C 124.144531 46.8125 124.03125 46.371094 124.015625 45.855469 L 123.992188 44.296875 C 123.921875 43.289062 124.132812 42.375 124.316406 41.566406 C 124.363281 41.355469 124.414062 41.148438 124.453125 40.941406 L 124.460938 40.898438 C 124.667969 40.019531 125.027344 39.25 125.339844 38.566406 C 125.429688 38.375 125.515625 38.1875 125.597656 37.996094 L 125.636719 37.914062 L 125.683594 37.835938 C 126.21875 36.953125 126.769531 36.160156 127.1875 35.5625 L 127.289062 35.4375 C 127.464844 35.242188 127.632812 35.042969 127.796875 34.851562 C 128.164062 34.417969 128.546875 33.972656 128.980469 33.566406 L 129.027344 33.523438 C 129.210938 33.367188 129.390625 33.210938 129.570312 33.058594 C 129.949219 32.726562 130.339844 32.386719 130.738281 32.078125 C 132.007812 31.085938 133.246094 30.386719 134.066406 29.945312 C 134.96875 29.46875 135.886719 29.058594 136.808594 28.710938 C 137.132812 28.589844 137.453125 28.480469 137.757812 28.378906 C 138.546875 28.121094 139.402344 28.4375 139.835938 29.148438 C 140.269531 29.855469 140.164062 30.761719 139.574219 31.347656 C 139.382812 31.535156 139.175781 31.746094 138.945312 31.980469 L 138.191406 32.777344 C 137.867188 33.121094 137.515625 33.496094 137.140625 33.894531 C 136.5625 34.554688 135.914062 35.355469 135.097656 36.402344 C 134.527344 37.1875 133.941406 38.128906 133.265625 39.359375 C 133.070312 39.820312 132.851562 40.351562 132.65625 40.875 C 132.601562 41.179688 132.523438 41.460938 132.453125 41.707031 C 132.382812 41.957031 132.316406 42.191406 132.304688 42.363281 C 132.308594 42.660156 132.277344 42.929688 132.253906 43.171875 C 132.226562 43.429688 132.199219 43.675781 132.234375 43.804688 L 132.257812 43.90625 L 132.289062 44.1875 C 132.335938 44.660156 132.378906 45.0625 132.527344 45.414062 L 132.578125 45.558594 L 132.824219 46.359375 C 132.871094 46.453125 132.929688 46.558594 132.992188 46.667969 C 133.078125 46.824219 133.167969 46.980469 133.246094 47.140625 L 133.335938 47.320312 C 133.578125 47.8125 133.792969 48.234375 134.113281 48.589844 L 134.171875 48.660156 C 134.382812 48.925781 134.5625 49.183594 134.738281 49.429688 C 134.96875 49.757812 135.183594 50.066406 135.4375 50.347656 C 135.703125 50.648438 135.957031 50.9375 136.207031 51.222656 C 136.507812 51.5625 136.808594 51.902344 137.105469 52.238281 C 138.53125 53.886719 139.585938 55.285156 140.429688 56.652344 C 141.636719 58.660156 142.335938 60.300781 142.703125 61.988281 C 143.054688 63.550781 143.292969 65.851562 142.425781 67.917969 C 141.921875 69.410156 141 70.703125 139.613281 71.867188 C 138.808594 72.585938 137.992188 73 137.335938 73.332031 C 137.171875 73.414062 137.015625 73.496094 136.871094 73.574219 L 136.777344 73.628906 L 136.671875 73.664062 C 136.277344 73.808594 135.894531 73.941406 135.523438 74.0625 C 135.34375 74.125 135.160156 74.152344 134.976562 74.152344 " fill-opacity="1" fill-rule="nonzero"/></svg>