<svg xmlns="http://www.w3.org/2000/svg" xmlns:xlink="http://www.w3.org/1999/xlink" width="300" zoomAndPan="magnify" viewBox="0 0 224.87999 225" height="300" preserveAspectRatio="xMidYMid meet" version="1.0"><defs><clipPath id="7b8c41b40a"><path d="M 22.488281 22.546875 L 202.390625 22.546875 L 202.390625 202.453125 L 22.488281 202.453125 Z M 22.488281 22.546875 " clip-rule="nonzero"/></clipPath></defs><g clip-path="url(#7b8c41b40a)"><path fill="#ffffff" d="M 61.46875 175.464844 L 25.488281 175.464844 C 25.089844 175.464844 24.707031 175.542969 24.339844 175.695312 C 23.972656 175.847656 23.648438 176.0625 23.367188 176.34375 C 23.085938 176.625 22.867188 176.949219 22.714844 177.316406 C 22.5625 177.683594 22.488281 178.066406 22.488281 178.464844 C 22.488281 178.863281 22.5625 179.246094 22.714844 179.613281 C 22.867188 179.980469 23.085938 180.304688 23.367188 180.585938 C 23.648438 180.867188 23.972656 181.082031 24.339844 181.234375 C 24.707031 181.386719 25.089844 181.464844 25.488281 181.464844 L 61.46875 181.464844 C 61.863281 181.464844 62.246094 181.386719 62.613281 181.234375 C 62.980469 181.082031 63.304688 180.867188 63.585938 180.585938 C 63.867188 180.304688 64.085938 179.980469 64.238281 179.613281 C 64.390625 179.246094 64.464844 178.863281 64.464844 178.464844 C 64.464844 178.066406 64.390625 177.683594 64.238281 177.316406 C 64.085938 176.949219 63.867188 176.625 63.585938 176.34375 C 63.304688 176.0625 62.980469 175.847656 62.613281 175.695312 C 62.246094 175.542969 61.863281 175.464844 61.46875 175.464844 Z M 61.46875 163.472656 L 31.484375 163.472656 C 31.085938 163.472656 30.703125 163.550781 30.335938 163.699219 C 29.96875 163.851562 29.644531 164.070312 29.363281 164.351562 C 29.082031 164.632812 28.863281 164.957031 28.714844 165.324219 C 28.5625 165.691406 28.484375 166.074219 28.484375 166.472656 C 28.484375 166.867188 28.5625 167.25 28.714844 167.617188 C 28.863281 167.984375 29.082031 168.308594 29.363281 168.589844 C 29.644531 168.871094 29.96875 169.089844 30.335938 169.242188 C 30.703125 169.394531 31.085938 169.46875 31.484375 169.46875 L 61.46875 169.46875 C 61.863281 169.46875 62.246094 169.394531 62.613281 169.242188 C 62.980469 169.089844 63.304688 168.871094 63.585938 168.589844 C 63.867188 168.308594 64.085938 167.984375 64.238281 167.617188 C 64.390625 167.25 64.464844 166.867188 64.464844 166.472656 C 64.464844 166.074219 64.390625 165.691406 64.238281 165.324219 C 64.085938 164.957031 63.867188 164.632812 63.585938 164.351562 C 63.304688 164.070312 62.980469 163.851562 62.613281 163.699219 C 62.246094 163.550781 61.863281 163.472656 61.46875 163.472656 Z M 61.46875 151.480469 L 37.480469 151.480469 C 37.082031 151.480469 36.699219 151.554688 36.332031 151.707031 C 35.964844 151.859375 35.640625 152.078125 35.359375 152.355469 C 35.078125 152.636719 34.863281 152.960938 34.710938 153.332031 C 34.558594 153.699219 34.480469 154.078125 34.480469 154.476562 C 34.480469 154.875 34.558594 155.257812 34.710938 155.625 C 34.863281 155.992188 35.078125 156.316406 35.359375 156.597656 C 35.640625 156.878906 35.964844 157.09375 36.332031 157.246094 C 36.699219 157.398438 37.082031 157.476562 37.480469 157.476562 L 61.46875 157.476562 C 61.863281 157.476562 62.246094 157.398438 62.613281 157.246094 C 62.980469 157.09375 63.304688 156.878906 63.585938 156.597656 C 63.867188 156.316406 64.085938 155.992188 64.238281 155.625 C 64.390625 155.257812 64.464844 154.875 64.464844 154.476562 C 64.464844 154.078125 64.390625 153.699219 64.238281 153.332031 C 64.085938 152.960938 63.867188 152.636719 63.585938 152.355469 C 63.304688 152.078125 62.980469 151.859375 62.613281 151.707031 C 62.246094 151.554688 61.863281 151.480469 61.46875 151.480469 Z M 97.449219 181.464844 L 85.453125 181.464844 C 85.058594 181.464844 84.675781 181.539062 84.308594 181.691406 C 83.941406 181.84375 83.617188 182.058594 83.335938 182.339844 C 83.054688 182.621094 82.835938 182.945312 82.683594 183.3125 C 82.53125 183.679688 82.457031 184.0625 82.457031 184.460938 C 82.457031 184.859375 82.53125 185.242188 82.683594 185.609375 C 82.835938 185.976562 83.054688 186.300781 83.335938 186.582031 C 83.617188 186.863281 83.941406 187.078125 84.308594 187.230469 C 84.675781 187.382812 85.058594 187.460938 85.453125 187.460938 L 97.449219 187.460938 C 97.84375 187.460938 98.226562 187.382812 98.59375 187.230469 C 98.960938 187.078125 99.285156 186.863281 99.566406 186.582031 C 99.847656 186.300781 100.066406 185.976562 100.21875 185.609375 C 100.371094 185.242188 100.445312 184.859375 100.445312 184.460938 C 100.445312 184.0625 100.371094 183.679688 100.21875 183.3125 C 100.066406 182.945312 99.847656 182.621094 99.566406 182.339844 C 99.285156 182.058594 98.960938 181.84375 98.59375 181.691406 C 98.226562 181.539062 97.84375 181.464844 97.449219 181.464844 Z M 97.449219 169.46875 L 85.453125 169.46875 C 85.058594 169.46875 84.675781 169.546875 84.308594 169.699219 C 83.941406 169.851562 83.617188 170.066406 83.335938 170.347656 C 83.054688 170.628906 82.835938 170.953125 82.683594 171.320312 C 82.53125 171.6875 82.457031 172.070312 82.457031 172.46875 C 82.457031 172.867188 82.53125 173.25 82.683594 173.617188 C 82.835938 173.984375 83.054688 174.308594 83.335938 174.589844 C 83.617188 174.871094 83.941406 175.085938 84.308594 175.238281 C 84.675781 175.390625 85.058594 175.464844 85.453125 175.464844 L 97.449219 175.464844 C 97.84375 175.464844 98.226562 175.390625 98.59375 175.238281 C 98.960938 175.085938 99.285156 174.871094 99.566406 174.589844 C 99.847656 174.308594 100.066406 173.984375 100.21875 173.617188 C 100.371094 173.25 100.445312 172.867188 100.445312 172.46875 C 100.445312 172.070312 100.371094 171.6875 100.21875 171.320312 C 100.066406 170.953125 99.847656 170.628906 99.566406 170.347656 C 99.285156 170.066406 98.960938 169.851562 98.59375 169.699219 C 98.226562 169.546875 97.84375 169.46875 97.449219 169.46875 Z M 97.449219 169.46875 L 85.453125 169.46875 C 85.058594 169.46875 84.675781 169.546875 84.308594 169.699219 C 83.941406 169.851562 83.617188 170.066406 83.335938 170.347656 C 83.054688 170.628906 82.835938 170.953125 82.683594 171.320312 C 82.53125 171.6875 82.457031 172.070312 82.457031 172.46875 C 82.457031 172.867188 82.53125 173.25 82.683594 173.617188 C 82.835938 173.984375 83.054688 174.308594 83.335938 174.589844 C 83.617188 174.871094 83.941406 175.085938 84.308594 175.238281 C 84.675781 175.390625 85.058594 175.464844 85.453125 175.464844 L 97.449219 175.464844 C 97.84375 175.464844 98.226562 175.390625 98.59375 175.238281 C 98.960938 175.085938 99.285156 174.871094 99.566406 174.589844 C 99.847656 174.308594 100.066406 173.984375 100.21875 173.617188 C 100.371094 173.25 100.445312 172.867188 100.445312 172.46875 C 100.445312 172.070312 100.371094 171.6875 100.21875 171.320312 C 100.066406 170.953125 99.847656 170.628906 99.566406 170.347656 C 99.285156 170.066406 98.960938 169.851562 98.59375 169.699219 C 98.226562 169.546875 97.84375 169.46875 97.449219 169.46875 Z M 97.449219 181.464844 L 85.453125 181.464844 C 85.058594 181.464844 84.675781 181.539062 84.308594 181.691406 C 83.941406 181.84375 83.617188 182.058594 83.335938 182.339844 C 83.054688 182.621094 82.835938 182.945312 82.683594 183.3125 C 82.53125 183.679688 82.457031 184.0625 82.457031 184.460938 C 82.457031 184.859375 82.53125 185.242188 82.683594 185.609375 C 82.835938 185.976562 83.054688 186.300781 83.335938 186.582031 C 83.617188 186.863281 83.941406 187.078125 84.308594 187.230469 C 84.675781 187.382812 85.058594 187.460938 85.453125 187.460938 L 97.449219 187.460938 C 97.84375 187.460938 98.226562 187.382812 98.59375 187.230469 C 98.960938 187.078125 99.285156 186.863281 99.566406 186.582031 C 99.847656 186.300781 100.066406 185.976562 100.21875 185.609375 C 100.371094 185.242188 100.445312 184.859375 100.445312 184.460938 C 100.445312 184.0625 100.371094 183.679688 100.21875 183.3125 C 100.066406 182.945312 99.847656 182.621094 99.566406 182.339844 C 99.285156 182.058594 98.960938 181.84375 98.59375 181.691406 C 98.226562 181.539062 97.84375 181.464844 97.449219 181.464844 Z M 97.449219 181.464844 L 85.453125 181.464844 C 85.058594 181.464844 84.675781 181.539062 84.308594 181.691406 C 83.941406 181.84375 83.617188 182.058594 83.335938 182.339844 C 83.054688 182.621094 82.835938 182.945312 82.683594 183.3125 C 82.53125 183.679688 82.457031 184.0625 82.457031 184.460938 C 82.457031 184.859375 82.53125 185.242188 82.683594 185.609375 C 82.835938 185.976562 83.054688 186.300781 83.335938 186.582031 C 83.617188 186.863281 83.941406 187.078125 84.308594 187.230469 C 84.675781 187.382812 85.058594 187.460938 85.453125 187.460938 L 97.449219 187.460938 C 97.84375 187.460938 98.226562 187.382812 98.59375 187.230469 C 98.960938 187.078125 99.285156 186.863281 99.566406 186.582031 C 99.847656 186.300781 100.066406 185.976562 100.21875 185.609375 C 100.371094 185.242188 100.445312 184.859375 100.445312 184.460938 C 100.445312 184.0625 100.371094 183.679688 100.21875 183.3125 C 100.066406 182.945312 99.847656 182.621094 99.566406 182.339844 C 99.285156 182.058594 98.960938 181.84375 98.59375 181.691406 C 98.226562 181.539062 97.84375 181.464844 97.449219 181.464844 Z M 97.449219 169.46875 L 85.453125 169.46875 C 85.058594 169.46875 84.675781 169.546875 84.308594 169.699219 C 83.941406 169.851562 83.617188 170.066406 83.335938 170.347656 C 83.054688 170.628906 82.835938 170.953125 82.683594 171.320312 C 82.53125 171.6875 82.457031 172.070312 82.457031 172.46875 C 82.457031 172.867188 82.53125 173.25 82.683594 173.617188 C 82.835938 173.984375 83.054688 174.308594 83.335938 174.589844 C 83.617188 174.871094 83.941406 175.085938 84.308594 175.238281 C 84.675781 175.390625 85.058594 175.464844 85.453125 175.464844 L 97.449219 175.464844 C 97.84375 175.464844 98.226562 175.390625 98.59375 175.238281 C 98.960938 175.085938 99.285156 174.871094 99.566406 174.589844 C 99.847656 174.308594 100.066406 173.984375 100.21875 173.617188 C 100.371094 173.25 100.445312 172.867188 100.445312 172.46875 C 100.445312 172.070312 100.371094 171.6875 100.21875 171.320312 C 100.066406 170.953125 99.847656 170.628906 99.566406 170.347656 C 99.285156 170.066406 98.960938 169.851562 98.59375 169.699219 C 98.226562 169.546875 97.84375 169.46875 97.449219 169.46875 Z M 97.449219 169.46875 L 85.453125 169.46875 C 85.058594 169.46875 84.675781 169.546875 84.308594 169.699219 C 83.941406 169.851562 83.617188 170.066406 83.335938 170.347656 C 83.054688 170.628906 82.835938 170.953125 82.683594 171.320312 C 82.53125 171.6875 82.457031 172.070312 82.457031 172.46875 C 82.457031 172.867188 82.53125 173.25 82.683594 173.617188 C 82.835938 173.984375 83.054688 174.308594 83.335938 174.589844 C 83.617188 174.871094 83.941406 175.085938 84.308594 175.238281 C 84.675781 175.390625 85.058594 175.464844 85.453125 175.464844 L 97.449219 175.464844 C 97.84375 175.464844 98.226562 175.390625 98.59375 175.238281 C 98.960938 175.085938 99.285156 174.871094 99.566406 174.589844 C 99.847656 174.308594 100.066406 173.984375 100.21875 173.617188 C 100.371094 173.25 100.445312 172.867188 100.445312 172.46875 C 100.445312 172.070312 100.371094 171.6875 100.21875 171.320312 C 100.066406 170.953125 99.847656 170.628906 99.566406 170.347656 C 99.285156 170.066406 98.960938 169.851562 98.59375 169.699219 C 98.226562 169.546875 97.84375 169.46875 97.449219 169.46875 Z M 97.449219 181.464844 L 85.453125 181.464844 C 85.058594 181.464844 84.675781 181.539062 84.308594 181.691406 C 83.941406 181.84375 83.617188 182.058594 83.335938 182.339844 C 83.054688 182.621094 82.835938 182.945312 82.683594 183.3125 C 82.53125 183.679688 82.457031 184.0625 82.457031 184.460938 C 82.457031 184.859375 82.53125 185.242188 82.683594 185.609375 C 82.835938 185.976562 83.054688 186.300781 83.335938 186.582031 C 83.617188 186.863281 83.941406 187.078125 84.308594 187.230469 C 84.675781 187.382812 85.058594 187.460938 85.453125 187.460938 L 97.449219 187.460938 C 97.84375 187.460938 98.226562 187.382812 98.59375 187.230469 C 98.960938 187.078125 99.285156 186.863281 99.566406 186.582031 C 99.847656 186.300781 100.066406 185.976562 100.21875 185.609375 C 100.371094 185.242188 100.445312 184.859375 100.445312 184.460938 C 100.445312 184.0625 100.371094 183.679688 100.21875 183.3125 C 100.066406 182.945312 99.847656 182.621094 99.566406 182.339844 C 99.285156 182.058594 98.960938 181.84375 98.59375 181.691406 C 98.226562 181.539062 97.84375 181.464844 97.449219 181.464844 Z M 97.449219 169.46875 L 85.453125 169.46875 C 85.058594 169.46875 84.675781 169.546875 84.308594 169.699219 C 83.941406 169.851562 83.617188 170.066406 83.335938 170.347656 C 83.054688 170.628906 82.835938 170.953125 82.683594 171.320312 C 82.53125 171.6875 82.457031 172.070312 82.457031 172.46875 C 82.457031 172.867188 82.53125 173.25 82.683594 173.617188 C 82.835938 173.984375 83.054688 174.308594 83.335938 174.589844 C 83.617188 174.871094 83.941406 175.085938 84.308594 175.238281 C 84.675781 175.390625 85.058594 175.464844 85.453125 175.464844 L 97.449219 175.464844 C 97.84375 175.464844 98.226562 175.390625 98.59375 175.238281 C 98.960938 175.085938 99.285156 174.871094 99.566406 174.589844 C 99.847656 174.308594 100.066406 173.984375 100.21875 173.617188 C 100.371094 173.25 100.445312 172.867188 100.445312 172.46875 C 100.445312 172.070312 100.371094 171.6875 100.21875 171.320312 C 100.066406 170.953125 99.847656 170.628906 99.566406 170.347656 C 99.285156 170.066406 98.960938 169.851562 98.59375 169.699219 C 98.226562 169.546875 97.84375 169.46875 97.449219 169.46875 Z M 97.449219 181.464844 L 85.453125 181.464844 C 85.058594 181.464844 84.675781 181.539062 84.308594 181.691406 C 83.941406 181.84375 83.617188 182.058594 83.335938 182.339844 C 83.054688 182.621094 82.835938 182.945312 82.683594 183.3125 C 82.53125 183.679688 82.457031 184.0625 82.457031 184.460938 C 82.457031 184.859375 82.53125 185.242188 82.683594 185.609375 C 82.835938 185.976562 83.054688 186.300781 83.335938 186.582031 C 83.617188 186.863281 83.941406 187.078125 84.308594 187.230469 C 84.675781 187.382812 85.058594 187.460938 85.453125 187.460938 L 97.449219 187.460938 C 97.84375 187.460938 98.226562 187.382812 98.59375 187.230469 C 98.960938 187.078125 99.285156 186.863281 99.566406 186.582031 C 99.847656 186.300781 100.066406 185.976562 100.21875 185.609375 C 100.371094 185.242188 100.445312 184.859375 100.445312 184.460938 C 100.445312 184.0625 100.371094 183.679688 100.21875 183.3125 C 100.066406 182.945312 99.847656 182.621094 99.566406 182.339844 C 99.285156 182.058594 98.960938 181.84375 98.59375 181.691406 C 98.226562 181.539062 97.84375 181.464844 97.449219 181.464844 Z M 97.449219 181.464844 L 85.453125 181.464844 C 85.058594 181.464844 84.675781 181.539062 84.308594 181.691406 C 83.941406 181.84375 83.617188 182.058594 83.335938 182.339844 C 83.054688 182.621094 82.835938 182.945312 82.683594 183.3125 C 82.53125 183.679688 82.457031 184.0625 82.457031 184.460938 C 82.457031 184.859375 82.53125 185.242188 82.683594 185.609375 C 82.835938 185.976562 83.054688 186.300781 83.335938 186.582031 C 83.617188 186.863281 83.941406 187.078125 84.308594 187.230469 C 84.675781 187.382812 85.058594 187.460938 85.453125 187.460938 L 97.449219 187.460938 C 97.84375 187.460938 98.226562 187.382812 98.59375 187.230469 C 98.960938 187.078125 99.285156 186.863281 99.566406 186.582031 C 99.847656 186.300781 100.066406 185.976562 100.21875 185.609375 C 100.371094 185.242188 100.445312 184.859375 100.445312 184.460938 C 100.445312 184.0625 100.371094 183.679688 100.21875 183.3125 C 100.066406 182.945312 99.847656 182.621094 99.566406 182.339844 C 99.285156 182.058594 98.960938 181.84375 98.59375 181.691406 C 98.226562 181.539062 97.84375 181.464844 97.449219 181.464844 Z M 97.449219 169.46875 L 85.453125 169.46875 C 85.058594 169.46875 84.675781 169.546875 84.308594 169.699219 C 83.941406 169.851562 83.617188 170.066406 83.335938 170.347656 C 83.054688 170.628906 82.835938 170.953125 82.683594 171.320312 C 82.53125 171.6875 82.457031 172.070312 82.457031 172.46875 C 82.457031 172.867188 82.53125 173.25 82.683594 173.617188 C 82.835938 173.984375 83.054688 174.308594 83.335938 174.589844 C 83.617188 174.871094 83.941406 175.085938 84.308594 175.238281 C 84.675781 175.390625 85.058594 175.464844 85.453125 175.464844 L 97.449219 175.464844 C 97.84375 175.464844 98.226562 175.390625 98.59375 175.238281 C 98.960938 175.085938 99.285156 174.871094 99.566406 174.589844 C 99.847656 174.308594 100.066406 173.984375 100.21875 173.617188 C 100.371094 173.25 100.445312 172.867188 100.445312 172.46875 C 100.445312 172.070312 100.371094 171.6875 100.21875 171.320312 C 100.066406 170.953125 99.847656 170.628906 99.566406 170.347656 C 99.285156 170.066406 98.960938 169.851562 98.59375 169.699219 C 98.226562 169.546875 97.84375 169.46875 97.449219 169.46875 Z M 97.449219 169.46875 L 85.453125 169.46875 C 85.058594 169.46875 84.675781 169.546875 84.308594 169.699219 C 83.941406 169.851562 83.617188 170.066406 83.335938 170.347656 C 83.054688 170.628906 82.835938 170.953125 82.683594 171.320312 C 82.53125 171.6875 82.457031 172.070312 82.457031 172.46875 C 82.457031 172.867188 82.53125 173.25 82.683594 173.617188 C 82.835938 173.984375 83.054688 174.308594 83.335938 174.589844 C 83.617188 174.871094 83.941406 175.085938 84.308594 175.238281 C 84.675781 175.390625 85.058594 175.464844 85.453125 175.464844 L 97.449219 175.464844 C 97.84375 175.464844 98.226562 175.390625 98.59375 175.238281 C 98.960938 175.085938 99.285156 174.871094 99.566406 174.589844 C 99.847656 174.308594 100.066406 173.984375 100.21875 173.617188 C 100.371094 173.25 100.445312 172.867188 100.445312 172.46875 C 100.445312 172.070312 100.371094 171.6875 100.21875 171.320312 C 100.066406 170.953125 99.847656 170.628906 99.566406 170.347656 C 99.285156 170.066406 98.960938 169.851562 98.59375 169.699219 C 98.226562 169.546875 97.84375 169.46875 97.449219 169.46875 Z M 97.449219 181.464844 L 85.453125 181.464844 C 85.058594 181.464844 84.675781 181.539062 84.308594 181.691406 C 83.941406 181.84375 83.617188 182.058594 83.335938 182.339844 C 83.054688 182.621094 82.835938 182.945312 82.683594 183.3125 C 82.53125 183.679688 82.457031 184.0625 82.457031 184.460938 C 82.457031 184.859375 82.53125 185.242188 82.683594 185.609375 C 82.835938 185.976562 83.054688 186.300781 83.335938 186.582031 C 83.617188 186.863281 83.941406 187.078125 84.308594 187.230469 C 84.675781 187.382812 85.058594 187.460938 85.453125 187.460938 L 97.449219 187.460938 C 97.84375 187.460938 98.226562 187.382812 98.59375 187.230469 C 98.960938 187.078125 99.285156 186.863281 99.566406 186.582031 C 99.847656 186.300781 100.066406 185.976562 100.21875 185.609375 C 100.371094 185.242188 100.445312 184.859375 100.445312 184.460938 C 100.445312 184.0625 100.371094 183.679688 100.21875 183.3125 C 100.066406 182.945312 99.847656 182.621094 99.566406 182.339844 C 99.285156 182.058594 98.960938 181.84375 98.59375 181.691406 C 98.226562 181.539062 97.84375 181.464844 97.449219 181.464844 Z M 46.476562 55.351562 L 46.476562 67.34375 C 46.476562 67.828125 46.367188 68.285156 46.144531 68.714844 C 45.921875 69.144531 45.613281 69.496094 45.214844 69.773438 C 44.703125 70.160156 44.121094 70.351562 43.476562 70.34375 C 43.148438 70.335938 42.832031 70.285156 42.515625 70.191406 L 24.527344 64.195312 C 24.230469 64.09375 23.953125 63.949219 23.703125 63.761719 C 23.449219 63.574219 23.234375 63.355469 23.050781 63.097656 C 22.867188 62.84375 22.726562 62.566406 22.632812 62.265625 C 22.535156 61.96875 22.488281 61.660156 22.488281 61.347656 C 22.488281 61.03125 22.535156 60.726562 22.632812 60.425781 C 22.726562 60.128906 22.867188 59.851562 23.050781 59.597656 C 23.234375 59.339844 23.449219 59.117188 23.703125 58.933594 C 23.953125 58.746094 24.230469 58.601562 24.527344 58.5 L 42.515625 52.503906 C 42.972656 52.351562 43.441406 52.3125 43.917969 52.386719 C 44.394531 52.460938 44.828125 52.636719 45.214844 52.921875 C 45.613281 53.199219 45.921875 53.550781 46.144531 53.980469 C 46.367188 54.410156 46.476562 54.867188 46.476562 55.351562 Z M 200.921875 58.949219 L 170.9375 40.957031 L 170.9375 41.019531 C 170.472656 40.714844 169.964844 40.554688 169.410156 40.539062 L 98.4375 40.539062 L 80.058594 26.746094 C 78.238281 25.386719 76.253906 24.347656 74.097656 23.632812 C 71.945312 22.914062 69.734375 22.550781 67.464844 22.546875 L 46.476562 22.546875 C 45.921875 22.542969 45.40625 22.683594 44.933594 22.972656 C 44.457031 23.257812 44.09375 23.644531 43.835938 24.136719 C 43.566406 24.621094 43.445312 25.136719 43.472656 25.6875 C 43.5 26.238281 43.671875 26.742188 43.988281 27.195312 L 55.980469 45.1875 C 56.253906 45.605469 56.613281 45.933594 57.054688 46.175781 C 57.496094 46.414062 57.96875 46.535156 58.46875 46.535156 L 64.464844 46.535156 L 64.464844 52.53125 L 55.46875 52.53125 C 55.074219 52.53125 54.691406 52.609375 54.324219 52.761719 C 53.957031 52.914062 53.632812 53.132812 53.351562 53.414062 C 53.070312 53.695312 52.855469 54.015625 52.703125 54.382812 C 52.550781 54.75 52.472656 55.132812 52.472656 55.53125 L 52.472656 67.523438 C 52.472656 67.921875 52.550781 68.304688 52.703125 68.671875 C 52.855469 69.035156 53.070312 69.359375 53.351562 69.640625 C 53.632812 69.921875 53.957031 70.140625 54.324219 70.292969 C 54.691406 70.445312 55.074219 70.519531 55.46875 70.523438 L 64.464844 70.523438 L 64.464844 76.519531 L 58.46875 76.519531 C 57.96875 76.519531 57.496094 76.640625 57.054688 76.878906 C 56.613281 77.117188 56.253906 77.449219 55.980469 77.867188 L 43.988281 95.859375 C 43.671875 96.3125 43.5 96.816406 43.472656 97.367188 C 43.445312 97.917969 43.566406 98.433594 43.835938 98.917969 C 44.09375 99.410156 44.457031 99.796875 44.933594 100.082031 C 45.40625 100.371094 45.921875 100.511719 46.476562 100.507812 L 67.464844 100.507812 C 69.734375 100.5 71.945312 100.140625 74.097656 99.421875 C 76.253906 98.703125 78.238281 97.667969 80.058594 96.308594 L 98.4375 82.515625 L 103.445312 82.515625 L 103.445312 127.492188 L 73.460938 127.492188 C 73.0625 127.492188 72.679688 127.570312 72.316406 127.722656 C 71.949219 127.875 71.625 128.09375 71.34375 128.371094 C 71.0625 128.652344 70.84375 128.976562 70.691406 129.34375 C 70.539062 129.710938 70.464844 130.09375 70.460938 130.492188 L 70.460938 199.453125 C 70.464844 199.851562 70.539062 200.234375 70.691406 200.601562 C 70.84375 200.964844 71.0625 201.289062 71.34375 201.570312 C 71.625 201.851562 71.949219 202.070312 72.316406 202.222656 C 72.679688 202.375 73.0625 202.449219 73.460938 202.453125 L 151.417969 202.453125 C 151.816406 202.449219 152.199219 202.375 152.566406 202.222656 C 152.933594 202.070312 153.257812 201.851562 153.535156 201.570312 C 153.816406 201.289062 154.035156 200.964844 154.1875 200.601562 C 154.339844 200.234375 154.417969 199.851562 154.417969 199.453125 L 154.417969 130.492188 C 154.417969 130.09375 154.339844 129.710938 154.1875 129.34375 C 154.035156 128.976562 153.816406 128.652344 153.535156 128.371094 C 153.257812 128.09375 152.933594 127.875 152.566406 127.722656 C 152.199219 127.570312 151.816406 127.492188 151.417969 127.492188 L 121.433594 127.492188 L 121.433594 82.515625 L 169.410156 82.515625 C 169.964844 82.5 170.472656 82.339844 170.9375 82.035156 L 170.9375 82.097656 L 200.921875 64.105469 C 201.148438 63.972656 201.347656 63.8125 201.53125 63.628906 C 201.714844 63.441406 201.871094 63.238281 202 63.011719 C 202.128906 62.785156 202.226562 62.546875 202.292969 62.292969 C 202.359375 62.042969 202.390625 61.789062 202.390625 61.527344 C 202.390625 61.265625 202.359375 61.011719 202.292969 60.761719 C 202.226562 60.507812 202.128906 60.269531 202 60.042969 C 201.871094 59.816406 201.714844 59.613281 201.53125 59.425781 C 201.347656 59.242188 201.148438 59.082031 200.921875 58.949219 Z M 76.460938 91.511719 C 75.160156 92.480469 73.738281 93.21875 72.203125 93.730469 C 70.664062 94.246094 69.085938 94.503906 67.464844 94.507812 L 52.082031 94.507812 L 60.089844 82.515625 L 88.453125 82.515625 Z M 60.089844 40.539062 L 52.082031 28.542969 L 67.464844 28.542969 C 69.085938 28.550781 70.664062 28.808594 72.203125 29.320312 C 73.738281 29.835938 75.160156 30.574219 76.460938 31.542969 L 88.453125 40.539062 Z M 109.441406 46.535156 L 115.4375 46.535156 L 115.4375 76.519531 L 109.441406 76.519531 Z M 109.441406 82.515625 L 115.4375 82.515625 L 115.4375 127.492188 L 109.441406 127.492188 Z M 123.113281 153.097656 C 123.527344 152.816406 123.847656 152.457031 124.082031 152.015625 C 124.3125 151.578125 124.433594 151.109375 124.433594 150.609375 L 124.433594 133.488281 L 148.421875 133.488281 L 148.421875 196.457031 L 76.460938 196.457031 L 76.460938 133.488281 L 100.445312 133.488281 L 100.445312 150.609375 C 100.445312 150.855469 100.476562 151.097656 100.535156 151.335938 C 100.597656 151.578125 100.683594 151.804688 100.800781 152.023438 C 100.914062 152.238281 101.054688 152.441406 101.21875 152.621094 C 101.386719 152.804688 101.570312 152.964844 101.773438 153.105469 C 101.976562 153.242188 102.195312 153.351562 102.425781 153.4375 C 102.660156 153.519531 102.898438 153.574219 103.140625 153.601562 C 103.386719 153.628906 103.632812 153.621094 103.875 153.589844 C 104.121094 153.554688 104.355469 153.492188 104.585938 153.398438 L 112.441406 150.21875 L 120.296875 153.398438 C 120.660156 153.542969 121.042969 153.609375 121.433594 153.609375 C 122.050781 153.621094 122.609375 153.449219 123.113281 153.097656 Z M 166.410156 76.519531 L 121.433594 76.519531 L 121.433594 46.535156 L 166.410156 46.535156 Z M 157.414062 61.527344 C 157.414062 62.117188 157.359375 62.703125 157.242188 63.28125 C 157.128906 63.863281 156.957031 64.425781 156.730469 64.96875 C 156.503906 65.515625 156.226562 66.035156 155.898438 66.523438 C 155.570312 67.015625 155.199219 67.46875 154.78125 67.886719 C 154.363281 68.304688 153.910156 68.679688 153.417969 69.007812 C 152.925781 69.335938 152.410156 69.613281 151.863281 69.835938 C 151.316406 70.0625 150.753906 70.234375 150.175781 70.347656 C 149.597656 70.464844 149.011719 70.523438 148.421875 70.523438 C 147.832031 70.523438 147.246094 70.464844 146.664062 70.347656 C 146.085938 70.234375 145.523438 70.0625 144.976562 69.835938 C 144.433594 69.613281 143.914062 69.335938 143.421875 69.007812 C 142.933594 68.679688 142.476562 68.304688 142.058594 67.886719 C 141.640625 67.46875 141.269531 67.015625 140.941406 66.523438 C 140.613281 66.035156 140.335938 65.515625 140.109375 64.96875 C 139.882812 64.425781 139.714844 63.863281 139.597656 63.28125 C 139.484375 62.703125 139.425781 62.117188 139.425781 61.527344 C 139.425781 60.9375 139.484375 60.351562 139.597656 59.773438 C 139.714844 59.191406 139.882812 58.628906 140.109375 58.085938 C 140.335938 57.539062 140.613281 57.019531 140.941406 56.53125 C 141.269531 56.039062 141.640625 55.585938 142.058594 55.167969 C 142.476562 54.75 142.933594 54.375 143.421875 54.046875 C 143.914062 53.71875 144.433594 53.441406 144.976562 53.214844 C 145.523438 52.992188 146.085938 52.820312 146.664062 52.703125 C 147.246094 52.589844 147.832031 52.53125 148.421875 52.53125 C 149.011719 52.535156 149.59375 52.59375 150.175781 52.710938 C 150.753906 52.824219 151.3125 52.996094 151.859375 53.222656 C 152.402344 53.449219 152.921875 53.726562 153.410156 54.054688 C 153.902344 54.382812 154.355469 54.757812 154.773438 55.175781 C 155.191406 55.589844 155.5625 56.046875 155.890625 56.535156 C 156.21875 57.027344 156.496094 57.542969 156.722656 58.089844 C 156.949219 58.632812 157.121094 59.195312 157.238281 59.773438 C 157.355469 60.351562 157.414062 60.9375 157.414062 61.527344 Z M 157.414062 61.527344 " fill-opacity="1" fill-rule="nonzero"/></g></svg>