<svg xmlns="http://www.w3.org/2000/svg" xmlns:xlink="http://www.w3.org/1999/xlink" width="300" zoomAndPan="magnify" viewBox="0 0 224.87999 225" height="300" preserveAspectRatio="xMidYMid meet" version="1.0"><path fill="#ffffff" d="M 111.660156 58.285156 C 81.769531 58.285156 57.453125 82.601562 57.453125 112.496094 C 57.453125 142.386719 81.769531 166.703125 111.660156 166.703125 C 141.550781 166.703125 165.867188 142.386719 165.867188 112.496094 C 165.867188 82.601562 141.550781 58.285156 111.660156 58.285156 Z M 111.660156 158.957031 C 86.039062 158.957031 65.195312 138.113281 65.195312 112.496094 C 65.195312 86.875 86.039062 66.03125 111.660156 66.03125 C 137.28125 66.03125 158.125 86.875 158.125 112.496094 C 158.125 138.113281 137.28125 158.957031 111.660156 158.957031 Z M 111.660156 158.957031 " fill-opacity="1" fill-rule="nonzero"/><path fill="#ffffff" d="M 132.152344 94.269531 L 103.914062 122.507812 L 91.160156 109.757812 C 89.648438 108.242188 87.199219 108.242188 85.6875 109.757812 C 84.171875 111.269531 84.171875 113.722656 85.6875 115.230469 L 101.179688 130.71875 C 101.9375 131.472656 102.929688 131.855469 103.914062 131.855469 C 104.902344 131.855469 105.898438 131.472656 106.652344 130.71875 L 137.628906 99.742188 C 139.144531 98.230469 139.144531 95.78125 137.628906 94.269531 C 136.113281 92.753906 133.667969 92.753906 132.152344 94.269531 Z M 132.152344 94.269531 " fill-opacity="1" fill-rule="nonzero"/><path fill="#ffffff" d="M 188.59375 99.898438 C 187 98.71875 186.503906 96.382812 187.5625 94.703125 C 191.34375 88.683594 196.839844 76.046875 177.921875 71.414062 C 175.992188 70.941406 174.5625 68.945312 174.972656 67.011719 C 176.789062 58.515625 174.246094 46.179688 157.148438 49.183594 C 155.199219 49.523438 153.128906 48.183594 152.746094 46.238281 C 151.464844 39.726562 145.941406 26.53125 129.460938 36.59375 C 127.761719 37.625 125.0625 37.066406 124.261719 35.554688 C 121.703125 30.71875 110.496094 19.566406 99.054688 35.554688 C 97.902344 37.167969 95.25 37.582031 93.859375 36.589844 C 86.355469 31.214844 74.234375 29.871094 70.570312 46.230469 C 70.148438 48.105469 68.152344 49.546875 66.164062 49.171875 C 59.605469 47.925781 45.210938 48.335938 48.347656 67 C 48.679688 68.953125 47.367188 71.109375 45.40625 71.40625 C 37.765625 72.546875 25.988281 78.683594 35.757812 94.691406 C 36.792969 96.382812 36.492188 98.992188 34.722656 99.886719 C 27.945312 103.3125 20.179688 115.503906 34.722656 125.105469 C 36.378906 126.195312 36.792969 128.546875 35.757812 130.238281 C 25.988281 146.246094 37.765625 152.378906 45.40625 153.523438 C 47.371094 153.820312 48.679688 155.976562 48.347656 157.929688 C 45.210938 176.59375 59.605469 177.003906 66.171875 175.753906 C 68.160156 175.375 70.15625 176.820312 70.578125 178.695312 C 74.242188 195.058594 86.363281 193.710938 93.867188 188.339844 C 95.257812 187.34375 97.910156 187.757812 99.0625 189.371094 C 110.503906 205.363281 121.710938 194.210938 124.269531 189.371094 C 125.070312 187.867188 127.769531 187.300781 129.46875 188.335938 C 145.949219 198.394531 151.472656 185.203125 152.753906 178.6875 C 153.136719 176.742188 155.207031 175.402344 157.15625 175.742188 C 174.253906 178.746094 176.792969 166.410156 174.980469 157.917969 C 174.566406 155.980469 176 153.984375 177.929688 153.515625 C 196.851562 148.878906 191.355469 136.242188 187.570312 130.222656 C 186.511719 128.542969 186.96875 126.160156 188.59375 125.035156 C 193.652344 121.539062 204.585938 111.730469 188.59375 99.898438 Z M 183.066406 138.480469 C 184.382812 140.597656 183.570312 143.507812 180.574219 144.496094 C 175.082031 146.308594 164.964844 147.796875 167.664062 163.824219 C 168.179688 166.871094 166.546875 168.695312 163.054688 168.429688 C 157.742188 168.023438 146.804688 165.871094 143.734375 181.339844 C 143.128906 184.394531 140.132812 185.058594 137.71875 183.839844 C 127.292969 178.578125 123.125 177.902344 114.925781 188.371094 C 113.355469 190.375 110.085938 190.289062 108.40625 188.371094 C 104 183.351562 99.011719 175.628906 85.609375 183.84375 C 83.277344 185.273438 80.621094 184.167969 79.59375 181.347656 C 76.917969 174.007812 76.125 166.183594 60.265625 168.441406 C 57.820312 168.789062 55.226562 167.132812 55.664062 163.835938 C 56.496094 157.53125 57.453125 147.410156 42.746094 144.507812 C 40.476562 144.058594 38.703125 141.03125 40.253906 138.492188 C 46.125 128.882812 45.3125 122.875 35.632812 115.652344 C 34.542969 114.839844 32.765625 111.34375 35.71875 109.230469 C 45.148438 102.484375 46.125 96.046875 40.253906 86.4375 C 38.699219 83.894531 40.476562 80.863281 42.746094 80.417969 C 57.453125 77.515625 56.496094 67.394531 55.664062 61.089844 C 55.226562 57.796875 57.824219 56.136719 60.265625 56.488281 C 76.125 58.738281 76.917969 50.917969 79.59375 43.578125 C 80.617188 40.753906 83.277344 39.65625 85.609375 41.082031 C 99.015625 49.296875 104.003906 41.574219 108.40625 36.554688 C 110.085938 34.636719 113.351562 34.550781 114.925781 36.554688 C 123.125 47.023438 127.292969 46.347656 137.71875 41.085938 C 140.132812 39.867188 143.128906 40.53125 143.734375 43.585938 C 146.804688 59.054688 157.742188 56.90625 163.054688 56.496094 C 166.550781 56.230469 168.179688 58.054688 167.664062 61.101562 C 164.964844 77.132812 175.082031 78.617188 180.574219 80.429688 C 183.570312 81.417969 184.382812 84.332031 183.066406 86.449219 C 174.457031 100.277344 183.554688 105.777344 187.601562 109.246094 C 189.179688 110.601562 190.089844 113.804688 187.964844 115.460938 C 183.128906 118.804688 174.457031 124.648438 183.066406 138.480469 Z M 183.066406 138.480469 " fill-opacity="1" fill-rule="nonzero"/></svg>