<svg xmlns="http://www.w3.org/2000/svg" xmlns:xlink="http://www.w3.org/1999/xlink" width="300" zoomAndPan="magnify" viewBox="0 0 224.87999 225" height="300" preserveAspectRatio="xMidYMid meet" version="1.0"><defs><clipPath id="dcd085ccfa"><path d="M 22.488281 22.546875 L 202.390625 22.546875 L 202.390625 178 L 22.488281 178 Z M 22.488281 22.546875 " clip-rule="nonzero"/></clipPath><clipPath id="5f01b5d1b7"><path d="M 22.488281 63 L 137 63 L 137 202.453125 L 22.488281 202.453125 Z M 22.488281 63 " clip-rule="nonzero"/></clipPath></defs><g clip-path="url(#dcd085ccfa)"><path fill="#ffffff" d="M 91.996094 177.917969 C 50.421875 177.917969 22.488281 153.273438 22.488281 116.589844 C 22.488281 88.3125 39.621094 22.546875 198.304688 22.546875 C 199.957031 22.546875 201.453125 23.546875 202.082031 25.074219 C 202.71875 26.605469 202.367188 28.363281 201.199219 29.53125 C 186.855469 43.882812 169.363281 64.980469 161.414062 101.117188 C 155.503906 127.957031 144.503906 177.917969 91.996094 177.917969 Z M 188.652344 30.808594 C 46.300781 33.308594 30.664062 91.328125 30.664062 116.589844 C 30.664062 148.382812 55.3125 169.742188 91.996094 169.742188 C 134.386719 169.742188 145.925781 133.410156 153.425781 99.359375 C 160.605469 66.691406 175.136719 45.683594 188.652344 30.808594 Z M 188.652344 30.808594 " fill-opacity="1" fill-rule="nonzero"/></g><g clip-path="url(#5f01b5d1b7)"><path fill="#ffffff" d="M 26.578125 202.453125 C 24.320312 202.453125 22.488281 200.621094 22.488281 198.363281 C 22.488281 174.050781 64.644531 96.046875 131.101562 63.84375 C 133.128906 62.871094 135.574219 63.714844 136.5625 65.742188 C 137.542969 67.769531 136.695312 70.214844 134.667969 71.203125 C 67.554688 103.726562 30.664062 179.253906 30.664062 198.363281 C 30.664062 200.621094 28.832031 202.453125 26.578125 202.453125 Z M 26.578125 202.453125 " fill-opacity="1" fill-rule="nonzero"/></g></svg>